<svg width="135" height="265" viewBox="0 0 135 265" fill="none" xmlns="http://www.w3.org/2000/svg">
<g opacity="0.1">
<path fill-rule="evenodd" clip-rule="evenodd" d="M100.196 17.546C98.1685 24.9473 90.5048 29.3058 83.0987 27.2825C75.6622 25.2553 71.3154 17.6026 73.3363 10.2301C75.3689 2.8141 83.0411 -1.52192 90.434 0.493644C97.8542 2.51619 102.218 10.151 100.196 17.546ZM88.7927 6.48292C84.7447 5.36885 80.4663 7.75293 79.3415 11.8671C78.2245 15.9246 80.5947 20.1582 84.74 21.2932C88.8534 22.4197 93.0843 19.9875 94.1912 15.909C95.316 11.8438 92.924 7.61406 88.7927 6.48292Z" fill="#0097FF"/>
<path d="M30.7424 64.4685C30.5097 64.6459 29.1954 66.0224 29.0654 66.1834C26.6295 69.2045 30.816 72.9881 33.6106 70.4568C34.1276 69.9881 34.6211 69.4724 35.0597 68.9334C37.3977 66.0865 33.6749 62.2365 30.7424 64.4685Z" fill="#0097FF"/>
<path d="M31.299 57.1687C30.0849 54.364 27.3122 52.5594 24.281 52.5594C20.1352 52.5594 20.1407 46.3094 24.281 46.3094C29.8265 46.3094 34.8393 49.5984 37.0481 54.6765C38.711 58.5015 32.9423 60.9758 31.299 57.1687Z" fill="#0097FF"/>
<path fill-rule="evenodd" clip-rule="evenodd" d="M47.9999 59.6151C47.9999 72.6367 37.3792 83.2222 24.3241 83.2222C11.2769 83.2222 0.65625 72.6367 0.65625 59.6151C0.65625 46.5935 11.2769 36 24.3241 36C37.3792 36 47.9999 46.5935 47.9999 59.6151ZM41.6354 59.6151C41.6354 50.0929 33.8708 42.3481 24.3241 42.3481C14.7853 42.3481 7.02071 50.0929 7.02071 59.6151C7.02071 69.1293 14.7853 76.8741 24.3241 76.8741C33.8708 76.8741 41.6354 69.1293 41.6354 59.6151Z" fill="#0097FF"/>
<path fill-rule="evenodd" clip-rule="evenodd" d="M42.5414 145.551C42.5414 137.899 36.2931 131.666 28.6129 131.666C20.9328 131.666 14.6922 137.899 14.6922 145.551C14.6922 153.212 20.9328 159.444 28.6129 159.444C36.2931 159.444 42.5414 153.212 42.5414 145.551ZM20.9173 145.551C20.9173 141.322 24.3721 137.875 28.6129 137.875C32.8615 137.875 36.3164 141.322 36.3164 145.551C36.3164 149.789 32.8615 153.235 28.6129 153.235C24.3721 153.235 20.9173 149.789 20.9173 145.551Z" fill="#0097FF"/>
<path d="M99.5661 118.591C97.2007 118.591 95.2817 120.505 95.2817 122.864C95.2817 125.216 97.2007 127.13 99.5661 127.13C101.924 127.13 103.843 125.216 103.843 122.864C103.843 120.505 101.924 118.591 99.5661 118.591Z" fill="#0097FF"/>
<path d="M128.163 127.13C130.528 127.13 132.439 125.216 132.439 122.864C132.439 120.505 130.528 118.591 128.163 118.591C125.797 118.591 123.878 120.505 123.878 122.864C123.878 125.216 125.797 127.13 128.163 127.13Z" fill="#0097FF"/>
<path fill-rule="evenodd" clip-rule="evenodd" d="M138.173 166.153C138.173 178.8 122.176 184.42 114.213 174.614C106.15 184.542 90.2532 178.646 90.2532 166.153C90.2532 162.017 96.5192 162.027 96.5192 166.153C96.5192 174.137 108.013 176.41 110.626 168.348C103.813 166.709 98.6184 160.973 98.6184 151.919C98.6184 146.739 102.84 142.528 108.025 142.528H121.928C127.121 142.528 131.343 146.739 131.343 151.919C131.343 161.677 125.231 167.573 117.902 168.622C120.621 176.145 131.907 174.152 131.907 166.153C131.907 162.018 138.173 162.024 138.173 166.153ZM108.025 148.778C106.294 148.778 104.884 150.184 104.884 151.919C104.884 166.183 125.077 166.226 125.077 151.919C125.077 150.184 123.667 148.778 121.928 148.778H108.025Z" fill="#0097FF"/>
<path d="M191.608 242.99C191.719 242.838 193.086 241.383 193.316 241.2C196.249 238.866 200.037 242.761 197.689 245.623C197.251 246.17 196.757 246.677 196.24 247.146C193.518 249.647 189.369 246.028 191.608 242.99Z" fill="#0097FF"/>
<path d="M186.897 223.005C182.749 223.005 182.728 229.255 186.897 229.255C189.854 229.255 192.674 230.991 193.915 233.856C195.569 237.689 201.32 235.163 199.664 231.372C197.455 226.286 192.442 223.005 186.897 223.005Z" fill="#0097FF"/>
<path fill-rule="evenodd" clip-rule="evenodd" d="M185.339 213.968C185.351 213.608 185.348 206.032 185.347 204.277L185.347 203.929H192.226C195.841 203.929 198.787 200.957 198.787 197.301V190.886C198.787 187.23 195.841 184.25 192.226 184.25H187.609C185.713 178.228 180.124 173.857 173.548 173.857H168.884C162.308 173.857 156.719 178.228 154.823 184.25H152.149C159.396 175.561 156.309 158.125 150.221 148.369V140.978C152.285 145.495 153.788 148.795 154.893 151.221C157.697 157.376 157.935 157.899 158.252 158.37L158.286 158.42L158.308 158.452L158.359 158.526C161.97 163.715 169.793 163.114 172.584 157.433C172.6 157.401 172.613 157.373 172.626 157.347L172.637 157.326L172.659 157.283C172.862 156.875 172.992 156.432 176.923 142.992C178.246 138.469 180 132.475 182.331 124.516C184.038 120.033 181.653 115.041 177.224 113.548L141.554 98.7994C156.613 91.1843 151.228 68.1065 134.387 68.1065C131.706 68.1065 129.071 68.7905 126.731 70.0798C120.44 63.3029 109.744 63.3099 103.459 70.0798C101.119 68.7905 98.484 68.1065 95.8023 68.1065C79.6601 68.1065 73.6508 89.711 87.5319 98.1861L52.9653 112.479C48.5363 113.972 46.1515 118.964 47.8585 123.446C50.3725 132.028 52.2139 138.326 53.5683 142.958L53.5842 143.013C57.2015 155.384 57.331 155.827 57.5394 156.229L57.5631 156.275C57.5785 156.304 57.5949 156.335 57.6136 156.372C60.3878 162.033 68.2152 162.652 71.8304 157.457L71.8349 157.451C71.8755 157.391 71.912 157.337 71.9476 157.283C72.2572 156.812 72.4938 156.292 74.7922 151.245L74.7927 151.244L74.7945 151.24C75.6732 149.311 76.853 146.721 78.453 143.219V151.026C73.57 160.358 71.2879 176.153 78.041 184.25H75.3671C73.4705 178.228 67.8817 173.857 61.3058 173.857H56.642C50.066 173.857 44.4772 178.228 42.5806 184.25H37.9635C34.349 184.25 31.4031 187.23 31.4031 190.886V197.301C31.4031 200.957 34.349 203.929 37.9635 203.929H44.8426V213.237C44.8426 232.523 57.6136 248.836 75.0562 253.993L70.7033 258.396C67.1635 261.995 72.5276 267.408 76.0745 263.821L84.1972 255.605C86.2641 255.737 143.752 255.748 145.993 255.605L154.115 263.821C157.664 267.41 163.025 261.994 159.486 258.396L155.134 253.993C159.152 252.806 162.922 251.022 166.342 248.749C170.291 255.888 177.854 260.723 186.505 260.723C199.261 260.723 209.638 250.228 209.638 237.326C209.638 223.721 198.169 213.191 185.339 213.968ZM188.317 190.54H192.226C192.413 190.54 192.568 190.697 192.568 190.886V197.301C192.568 197.49 192.413 197.639 192.226 197.639H187.267C188.346 195.354 188.335 193.584 188.32 191.355V191.351L188.32 191.346C188.319 191.207 188.318 191.066 188.318 190.924C188.317 190.797 188.317 190.67 188.317 190.54ZM37.9635 197.639C37.7769 197.639 37.6215 197.49 37.6215 197.301V190.886C37.6215 190.697 37.7769 190.54 37.9635 190.54H41.8733C41.8733 190.825 41.8711 191.103 41.869 191.376V191.378C41.8521 193.538 41.838 195.345 42.9226 197.639H37.9635ZM160.45 187.395C161.09 183.315 164.621 180.146 168.884 180.146H173.548C177.811 180.146 181.342 183.314 181.982 187.395C182.102 188.105 182.102 188.222 182.099 191.063L182.099 191.089V191.093C182.099 191.608 182.098 192.211 182.098 192.922C182.098 194.691 181.134 196.232 179.712 197.042V188.897C179.712 184.717 173.493 184.766 173.493 188.897V197.639H168.938V188.897C168.938 184.695 162.72 184.783 162.72 188.897V197.042C161.298 196.232 160.334 194.691 160.334 192.922C160.334 192.524 160.333 192.16 160.333 191.827L160.332 190.843C160.327 188.312 160.327 188.115 160.45 187.395ZM175.203 119.492C176.357 119.861 176.973 121.163 176.509 122.306C176.462 122.422 173.255 133.358 170.581 142.478L170.542 142.611L170.536 142.628C168.64 149.095 167.023 154.61 167.011 154.635C166.32 156.043 164.342 156.194 163.451 154.91C163.427 154.885 140.768 105.293 140.754 105.262C140.875 105.312 175.078 119.453 175.203 119.492ZM109.009 111.709C102.992 106.991 97.2326 108.037 93.6181 110.034L98.0409 100.356C98.6395 100.277 99.238 100.159 99.821 100.002C106.288 112.478 123.902 112.476 130.369 100.002C130.789 100.112 131.216 100.207 131.651 100.285C131.733 100.549 135.919 109.682 136.5 110.948L136.501 110.95L136.564 111.088C129.063 105.844 122.106 109.279 119.401 111.937C116.503 114.776 120.698 119.29 123.707 116.473C124.438 115.789 128.348 112.573 133.595 116.677C135.253 117.987 137.745 117.275 138.445 115.199L144.003 127.37V140.719C128.347 125.689 100.087 125.763 84.6714 142.252V129.61L90.8043 116.19C91.6523 117.391 93.8513 117.848 95.3204 116.473C96.0511 115.789 99.9609 112.573 105.2 116.677C108.407 119.21 112.318 114.29 109.009 111.709ZM144.003 150.271C151.391 160.831 150.509 173.61 149.35 176.797C147.78 181.145 143.645 184.25 138.81 184.25H91.3795C86.5447 184.25 82.4094 181.145 80.8393 176.797C79.4207 172.895 79.4549 161.639 84.6714 152.646C97.4409 130.628 130.458 130.896 144.003 150.271ZM95.8023 74.396C98.1109 74.396 100.35 75.2294 102.122 76.7389C103.613 78.0093 105.797 77.5809 106.77 75.9998C110.63 69.7158 119.567 69.7268 123.42 75.9998C124.406 77.6029 126.594 77.9952 128.068 76.7389C129.832 75.2294 132.079 74.396 134.387 74.396C147.349 74.396 147.357 94.2316 134.387 94.2316C132.901 94.2316 131.424 93.8967 130.027 93.186C128.307 92.3164 126.199 93.2245 125.658 95.1121C122.499 105.763 107.662 105.662 104.531 95.1121C103.99 93.2206 101.878 92.3188 100.163 93.186C98.7949 93.8778 97.3258 94.2316 95.8023 94.2316C82.7305 94.2316 82.9069 74.396 95.8023 74.396ZM66.7391 153.841C65.8398 155.124 63.8701 154.97 63.1791 153.573C63.1515 153.489 61.7757 148.798 60.0794 143.014C57.3244 133.619 53.7238 121.342 53.6805 121.237C53.2156 120.093 53.8336 118.791 54.9863 118.423C55.0833 118.393 82.6499 106.998 88.395 104.623L89.4362 104.193L88.4655 106.317L88.4631 106.322C84.1405 115.783 66.8974 153.52 66.7391 153.841ZM76.0745 190.54H154.115C154.115 190.826 154.113 191.105 154.111 191.379C154.094 193.539 154.08 195.345 155.165 197.639H75.0251C76.1042 195.354 76.0926 193.584 76.078 191.355C76.0762 191.09 76.0745 190.819 76.0745 190.54ZM50.478 197.042C49.0555 196.232 48.0917 194.691 48.0917 192.922C48.0917 192.104 48.0906 191.43 48.0897 190.869V190.868C48.0856 188.314 48.0853 188.118 48.2083 187.395C48.848 183.315 52.3785 180.146 56.642 180.146H61.3058C65.5879 180.146 69.106 183.354 69.7395 187.395C70.3224 190.814 70.4507 195.344 67.4697 197.042V188.897C67.4697 184.695 61.2514 184.783 61.2514 188.897V197.639H56.6964V188.897C56.6964 184.711 50.478 184.771 50.478 188.897V197.042ZM164.018 242.751C157.954 247.094 150.779 249.402 143.373 249.402H86.8167C67.2179 249.402 51.061 233.291 51.061 213.237V203.929H179.074C179.074 208.687 179.091 211.192 179.1 212.638V212.646C179.11 214.246 179.112 214.547 179.074 215.179C167.787 219.053 161.208 231.068 164.018 242.751ZM186.505 254.434C177.207 254.434 169.599 246.772 169.599 237.326C169.599 227.882 177.21 220.226 186.505 220.226C195.833 220.226 203.419 227.9 203.419 237.326C203.419 246.76 195.833 254.434 186.505 254.434Z" fill="#0097FF"/>
<path fill-rule="evenodd" clip-rule="evenodd" d="M177.586 160.208C177.586 167.919 183.876 174.192 191.599 174.192C199.33 174.192 205.619 167.919 205.619 160.208C205.619 152.505 199.33 146.231 191.599 146.231C183.876 146.231 177.586 152.505 177.586 160.208ZM191.599 152.481C195.876 152.481 199.353 155.95 199.353 160.208C199.353 164.473 195.876 167.942 191.599 167.942C187.33 167.942 183.853 164.473 183.853 160.208C183.853 155.95 187.33 152.481 191.599 152.481Z" fill="#0097FF"/>
<path fill-rule="evenodd" clip-rule="evenodd" d="M190.59 110.322C192.415 103.659 199.289 99.7349 205.972 101.557C212.651 103.378 216.586 110.234 214.759 116.901C212.946 123.525 206.068 127.493 199.377 125.665C192.708 123.861 188.76 117.001 190.59 110.322ZM200.854 120.281C204.544 121.28 208.353 119.108 209.361 115.434C210.362 111.741 208.184 107.942 204.502 106.949C200.81 105.932 196.995 108.111 195.995 111.795C194.987 115.469 197.164 119.275 200.854 120.281Z" fill="#0097FF"/>
</g>
</svg>
